<?xml version="1.0" encoding="utf-8"?>
<!-- Generator: Adobe Illustrator 25.2.3, SVG Export Plug-In . SVG Version: 6.00 Build 0)  -->
<svg version="1.1" id="Capa_1" xmlns="http://www.w3.org/2000/svg" xmlns:xlink="http://www.w3.org/1999/xlink" x="0px" y="0px"
	 viewBox="0 0 476 283.5" style="enable-background:new 0 0 476 283.5;" xml:space="preserve">
<style type="text/css">
	.st0{fill:none;stroke:#FFFFFF;stroke-width:5;stroke-miterlimit:10;}
	.st1{fill:#FFFFFF;}
	.st2{fill:#2B3179;stroke:#2B3179;stroke-width:2;stroke-miterlimit:10;}
</style>
<polyline class="st0" points="101.2,181.6 109.2,181.6 215.3,181.6 "/>
<polyline class="st0" points="109.2,181.6 109.5,126.6 141.6,104.6 141.6,77.7 174.9,55.7 174.9,129.4 207.3,151.7 207.3,181.6 "/>
<line class="st0" x1="141.6" y1="181.6" x2="141.6" y2="104.6"/>
<line class="st0" x1="174.6" y1="181.6" x2="174.9" y2="129.4"/>
<line class="st0" x1="119.9" y1="136.7" x2="119.9" y2="169.7"/>
<line class="st0" x1="131.8" y1="121.5" x2="131.8" y2="169.7"/>
<line class="st0" x1="185.9" y1="148.4" x2="185.9" y2="169.7"/>
<line class="st0" x1="197.8" y1="155.5" x2="197.8" y2="169.7"/>
<line class="st0" x1="152.9" y1="90.6" x2="152.9" y2="169.7"/>
<line class="st0" x1="164.8" y1="75.5" x2="164.8" y2="169.7"/>
<line class="st0" x1="111.6" y1="191.4" x2="205.5" y2="191.4"/>
<path class="st1" d="M249.1,113.2c-3.8,0-7.4-0.6-10.6-1.9c-3.2-1.3-6-3.1-8.4-5.4s-4.2-5-5.5-8.1s-2-6.5-2-10.2s0.7-7.1,2-10.2
	s3.2-5.8,5.6-8.1c2.4-2.3,5.2-4.1,8.5-5.4c3.2-1.3,6.8-1.9,10.6-1.9s7.4,0.6,10.5,1.8c3.2,1.2,5.9,3,8.2,5.5l-3.3,3.4
	c-2.1-2.1-4.4-3.6-7-4.5c-2.5-0.9-5.3-1.4-8.2-1.4c-3.1,0-6,0.5-8.6,1.5s-4.9,2.5-6.8,4.4c-1.9,1.9-3.5,4.1-4.5,6.6
	s-1.6,5.3-1.6,8.3s0.5,5.7,1.6,8.3c1.1,2.5,2.6,4.8,4.5,6.7c1.9,1.9,4.2,3.4,6.8,4.4s5.5,1.5,8.5,1.5c2.9,0,5.6-0.4,8.2-1.3
	c2.6-0.9,4.9-2.3,7.1-4.4l3,4c-2.4,2.1-5.2,3.7-8.4,4.8S252.6,113.2,249.1,113.2z M262.5,106.1V87.6h5.1v19.2L262.5,106.1z"/>
<path class="st1" d="M282.7,112.8V62.4h18.9c4.3,0,7.9,0.7,11,2.1c3.1,1.4,5.4,3.3,7.1,5.9s2.5,5.7,2.5,9.3c0,3.6-0.8,6.6-2.5,9.2
	s-4,4.5-7.1,5.9s-6.7,2.1-11,2.1h-15.9l2.4-2.4v18.4L282.7,112.8L282.7,112.8z M288,94.8l-2.4-2.5h15.8c5,0,8.9-1.1,11.5-3.3
	c2.6-2.2,3.9-5.3,3.9-9.3s-1.3-7.2-3.9-9.4c-2.6-2.2-6.4-3.3-11.5-3.3h-15.8l2.4-2.5V94.8z M317.1,112.8l-13-18.3h5.8l13,18.3H317.1
	z"/>
<path class="st1" d="M355,113.2c-6.4,0-11.5-1.8-15.2-5.5s-5.5-9.2-5.5-16.4V62.4h5.3V91c0,6,1.3,10.3,4,13.2
	c2.7,2.8,6.5,4.2,11.4,4.2s8.8-1.4,11.4-4.2c2.7-2.8,4-7.2,4-13.2V62.4h5.2v28.9c0,7.2-1.8,12.7-5.5,16.4
	C366.5,111.3,361.4,113.2,355,113.2z"/>
<path class="st1" d="M227,182.8v-50.4h18.9c4.3,0,7.9,0.7,11,2.1c3.1,1.4,5.4,3.3,7.1,5.9c1.7,2.6,2.5,5.7,2.5,9.3s-0.8,6.6-2.5,9.2
	c-1.7,2.6-4,4.5-7.1,5.9s-6.7,2.1-11,2.1H230l2.4-2.5v18.4L227,182.8L227,182.8z M232.3,164.8l-2.4-2.6h15.8c5,0,8.9-1.1,11.5-3.3
	s3.9-5.3,3.9-9.3s-1.3-7.2-3.9-9.4s-6.4-3.3-11.5-3.3h-15.8l2.4-2.5V164.8z"/>
<path class="st1" d="M300.7,183.2c-3.8,0-7.3-0.6-10.5-1.9c-3.2-1.3-6-3.1-8.4-5.4c-2.4-2.3-4.2-5-5.5-8.1s-2-6.5-2-10.2
	s0.7-7.1,2-10.2s3.2-5.8,5.5-8.1c2.4-2.3,5.2-4.1,8.4-5.4c3.2-1.3,6.7-1.9,10.6-1.9c3.8,0,7.3,0.6,10.5,1.9c3.2,1.3,6,3.1,8.4,5.4
	c2.4,2.3,4.2,5,5.5,8.1s2,6.5,2,10.2s-0.7,7.1-2,10.2s-3.2,5.8-5.5,8.1s-5.2,4.1-8.4,5.4C308,182.5,304.5,183.2,300.7,183.2z
	 M300.7,178.4c3,0,5.8-0.5,8.4-1.5s4.8-2.5,6.7-4.4c1.9-1.9,3.4-4.1,4.4-6.6c1.1-2.5,1.6-5.3,1.6-8.3s-0.5-5.8-1.6-8.3
	s-2.5-4.7-4.4-6.6c-1.9-1.9-4.1-3.4-6.7-4.4s-5.4-1.5-8.4-1.5s-5.8,0.5-8.4,1.5s-4.8,2.5-6.8,4.4c-1.9,1.9-3.4,4.1-4.5,6.6
	s-1.6,5.3-1.6,8.3s0.5,5.7,1.6,8.3c1.1,2.5,2.5,4.8,4.5,6.7c1.9,1.9,4.2,3.4,6.8,4.4C294.9,177.9,297.7,178.4,300.7,178.4z"/>
<path class="st2" d="M333.8,169.5v-3.7l26.7-33.4h5.8l-26.5,33.4l-2.8-0.9h40.5v4.6H333.8z M362.2,182.8v-13.2l0.1-4.6v-11.7h5v29.5
	H362.2z"/>
<g>
	<path class="st1" d="M101.2,236.9v-21h2.2v21H101.2z"/>
	<path class="st1" d="M116.3,236.9v-21h1.8l14.5,18.2h-1v-18.2h2.2v21H132l-14.5-18.2h1v18.2H116.3z"/>
	<path class="st1" d="M146.7,236.9v-21h1.8l9.6,16.4h-1l9.5-16.4h1.8v21h-2.1v-17.7h0.5l-8.8,15h-1l-8.8-15h0.6v17.7H146.7z"/>
	<path class="st1" d="M190.5,237.1c-1.6,0-3-0.3-4.4-0.8c-1.3-0.5-2.5-1.3-3.5-2.2c-1-1-1.8-2.1-2.3-3.4s-0.8-2.7-0.8-4.2
		s0.3-3,0.8-4.2s1.3-2.4,2.3-3.4s2.2-1.7,3.5-2.2s2.8-0.8,4.4-0.8c1.6,0,3,0.3,4.4,0.8c1.3,0.5,2.5,1.3,3.5,2.2c1,1,1.8,2.1,2.3,3.4
		c0.5,1.3,0.8,2.7,0.8,4.3s-0.3,3-0.8,4.3c-0.6,1.3-1.3,2.4-2.3,3.4s-2.2,1.7-3.5,2.2C193.5,236.8,192.1,237.1,190.5,237.1z
		 M190.5,235.1c1.3,0,2.4-0.2,3.5-0.6c1.1-0.4,2-1,2.8-1.8s1.4-1.7,1.8-2.8c0.4-1,0.7-2.2,0.7-3.5s-0.2-2.4-0.7-3.5
		c-0.4-1.1-1.1-2-1.8-2.8c-0.8-0.8-1.7-1.4-2.8-1.8c-1.1-0.4-2.2-0.6-3.5-0.6s-2.4,0.2-3.5,0.6c-1.1,0.4-2,1-2.8,1.8
		s-1.4,1.7-1.9,2.8c-0.4,1-0.7,2.2-0.7,3.5c0,1.2,0.2,2.4,0.7,3.5c0.4,1.1,1.1,2,1.9,2.8s1.7,1.4,2.8,1.8
		C188.1,234.9,189.2,235.1,190.5,235.1z"/>
	<path class="st1" d="M212.5,236.9v-21h9.1c2.3,0,4.2,0.5,5.4,1.4c1.3,0.9,1.9,2.3,1.9,4c0,1.1-0.3,2.1-0.8,2.9
		c-0.5,0.8-1.3,1.4-2.2,1.8c-0.9,0.4-1.9,0.6-3,0.6l0.5-0.7c1.3,0,2.5,0.2,3.5,0.6c1,0.4,1.7,1,2.3,1.8c0.5,0.8,0.8,1.8,0.8,3
		c0,1.8-0.7,3.2-2,4.1c-1.3,1-3.3,1.5-5.9,1.5L212.5,236.9L212.5,236.9z M214.7,235.1h7.4c1.8,0,3.2-0.3,4.2-0.9
		c1-0.6,1.5-1.6,1.5-3s-0.5-2.4-1.5-3s-2.4-0.9-4.2-0.9h-7.6v-1.8h6.9c1.7,0,3-0.3,3.9-1c0.9-0.6,1.4-1.6,1.4-2.9
		c0-1.3-0.5-2.2-1.4-2.9s-2.2-0.9-3.9-0.9h-6.7L214.7,235.1L214.7,235.1z"/>
	<path class="st1" d="M241.1,236.9v-21h2.2v21H241.1z"/>
	<path class="st1" d="M256.2,236.9v-21h2.2V235h11.8v1.9H256.2z"/>
	<path class="st1" d="M279.8,236.9v-21h2.2v21H279.8z"/>
	<path class="st1" d="M291.5,236.9l9.6-21h2.2l9.6,21h-2.3l-8.8-19.7h0.9l-8.8,19.7H291.5z M295.3,231.3l0.7-1.8h12.2l0.7,1.8H295.3
		z"/>
	<path class="st1" d="M322.4,236.9v-21h7.9c1.8,0,3.3,0.3,4.6,0.9c1.3,0.6,2.3,1.4,3,2.5s1,2.4,1,3.9s-0.3,2.8-1,3.8
		c-0.7,1.1-1.7,1.9-3,2.5s-2.8,0.9-4.6,0.9h-6.6l1-1v7.7h-2.3V236.9z M324.6,229.4l-1-1h6.6c2.1,0,3.7-0.5,4.8-1.4
		c1.1-0.9,1.6-2.2,1.6-3.9s-0.5-3-1.6-3.9s-2.7-1.4-4.8-1.4h-6.6l1-1V229.4z M336.7,236.9l-5.4-7.6h2.4l5.4,7.6H336.7z"/>
	<path class="st1" d="M350.1,236.9v-21h2.2v21H350.1z"/>
	<path class="st1" d="M361.8,236.9l9.6-21h2.2l9.6,21h-2.3l-8.8-19.7h0.9l-8.8,19.7H361.8z M365.6,231.3l0.7-1.8h12.2l0.7,1.8H365.6
		z"/>
</g>
</svg>
