<?xml version="1.0" encoding="utf-8"?>
<!-- Generator: Adobe Illustrator 25.2.3, SVG Export Plug-In . SVG Version: 6.00 Build 0)  -->
<svg version="1.1" id="Capa_1" xmlns="http://www.w3.org/2000/svg" xmlns:xlink="http://www.w3.org/1999/xlink" x="0px" y="0px"
	 viewBox="0 0 572 283.5" style="enable-background:new 0 0 572 283.5;" xml:space="preserve">
<style type="text/css">
	.st0{fill:#9D9D9C;}
	.st1{fill:#3192D0;}
	.st2{fill:#FFFFFF;}
</style>
<g>
	<path class="st0" d="M460.1,166.3l7.9-2.6c1.1-0.5,2.1-0.9,2.8-1.7c0.7-0.7,1.2-1.7,1.5-2.9L485.7,97l2.6-11.7L463,109.8
		l-19.1,19.5l9-0.3h60.5l-2.2,10.2h-79.4L434,129l66.2-67h10.1l-20.9,97.2c-0.2,1.3-0.1,2.2,0.2,2.9s1.1,1.3,2.1,1.7l7.4,2.6
		l-0.8,4.2h-38.9L460.1,166.3z"/>
	<g>
		<g>
			<path class="st1" d="M98.2,116.6c-2.3,0-4.7-0.2-7-0.5c-2.1-0.4-3.9-0.9-4.9-1.3c-1,0.4-1.9,1.1-2.9,2.2s-1.4,2.5-1.4,4.1
				c0,1.4,0.6,2.7,1.6,3.9s2.1,2,3.3,2.3h22.7c5.6,0,9.9,0.7,13.2,2.3c3.3,1.6,5.6,3.4,7,5.7s2.1,4.7,2.1,7.2
				c0,4.5-1.6,8.4-4.7,11.8s-7.2,6.1-12.4,8.1c-5.2,2-11.1,2.9-17.5,2.9c-5.4,0-10.5-0.5-14.7-1.8c-4.5-1.3-7.8-2.9-10.3-5.2
				s-3.7-5-3.7-8.3c0-3.8,1.4-6.8,4.1-9.1s5.8-3.8,9.3-4.7v-0.7c-1.4-0.4-2.9-1.1-4.3-2c-1.6-0.9-2.7-2-3.7-3.4s-1.6-3-1.6-5.2
				c0-2.3,0.6-4.3,1.7-5.9c1.2-1.6,2.7-2.9,4.3-3.9c1.7-0.9,3.5-1.6,5-2v-0.5c-1.6-0.9-3.1-2-4.7-3.2c-1.7-1.4-3.1-3-4.3-5.2
				c-1.2-2.2-1.7-4.7-1.7-7.5c0-3.9,1-7.5,3.1-10.8c2.1-3,5-5.6,8.9-7.4s8.5-2.7,13.8-2.7c2.9,0,5.4,0.2,7.8,0.4
				c2.3,0.4,4.5,0.7,6.8,1.1h21.3l-0.4,7l-15.2-0.9V84c1.7,1.8,2.9,3.8,4.1,5.6c1,1.8,1.6,4.3,1.6,7.2c0,5.7-2.3,10.4-6.8,14.2
				C112.7,114.6,106.3,116.6,98.2,116.6z M100.1,158.8c3.5,0,6.8-0.4,10.1-1.3c3.3-0.9,6-2.2,8-4.1c2.1-2,3.1-4.5,3.1-7.7
				c0-2.2-1-4.1-2.9-6.1s-5.2-3-9.9-3H87.7c-1.6,0.4-3.3,1.4-4.9,3s-2.5,4.1-2.5,7.2c0,2.3,0.6,4.3,1.9,5.9c1.4,1.6,3.1,2.9,5.2,3.6
				c2.1,0.9,4.3,1.4,6.6,1.8C96.2,158.6,98.4,158.8,100.1,158.8z M98.2,111.4c2.9,0,5.4-0.5,7.4-1.8c1.9-1.1,3.5-2.9,4.7-5.2
				s1.6-5.2,1.6-8.6c0-5-1.2-8.8-3.7-11.1c-2.5-2.5-5.8-3.8-9.9-3.8c-2.3,0-4.5,0.5-6.4,1.4c-1.9,1.1-3.5,2.5-4.7,4.8
				c-1.2,2.2-1.7,5-1.7,8.6c0,5.2,1.2,9.1,3.5,11.7C91.4,110.1,94.5,111.4,98.2,111.4z"/>
		</g>
		<g>
			<path class="st1" d="M144,137.4v-4.1l7.4-2.2c0.8-0.2,1.2-0.5,1.7-0.9c0.4-0.4,0.8-1.1,0.8-1.8V89.7c0-0.9-0.4-1.8-1-2.3
				s-1.2-0.9-1.9-1.3l-7.6-2.9v-3.9l21.3-3v13.1h0.6c2.5-3.2,4.9-5.9,7-7.9s4.3-3.4,6.4-4.3c2.1-0.9,4.3-1.3,6.6-1.3
				c1.9,0,3.9,0.2,6,0.5c1.9,0.4,3.7,1.3,5.4,2.5v14h-7.4l-1.7-4.3c-0.4-0.9-1.4-1.6-2.7-2.2c-1.4-0.5-2.7-0.9-4.1-0.9
				c-2.3,0-4.3,0.5-6.2,1.4c-1.7,0.9-3.5,2.2-4.9,3.6s-2.7,2.9-4.1,4.3v33.7c0,1.4,0.8,2.3,2.3,2.7l9.3,2.2v4.1h-33.4v-0.1
				L144,137.4L144,137.4z"/>
		</g>
		<g>
			<path class="st1" d="M234.8,138.7c-3.9,0-7.2-0.7-10.3-2.2s-5.6-3.6-7.4-6.5c-1.7-3-2.7-6.8-2.7-11.7V89c0-0.9-0.2-1.4-0.8-2
				c-0.4-0.4-1.2-0.7-1.9-1.1l-7.2-2.7v-3.9l21.7-3v37.3c0,3.4,0.4,6.5,1,9s1.9,4.3,3.9,5.7c1.9,1.3,4.9,2,8.9,2
				c3.7,0,6.8-0.5,9.3-1.6s4.7-2.5,6.2-4.1V89c0-0.9-0.2-1.4-0.8-1.8c-0.4-0.4-1.2-0.7-1.9-1.1l-7-2.7v-3.9l21.9-3.2V126
				c0,0.9,0.2,1.4,0.8,1.8c0.4,0.4,1.2,0.7,1.9,1.1l7.2,2.7v3.9l-20.4,3h-0.4v-10h-0.6c-2.9,3.4-5.8,5.9-9.1,7.5
				C243.9,137.8,239.6,138.7,234.8,138.7z"/>
		</g>
		<g>
			<path class="st1" d="M286.2,165v-4.1l7.8-2.3c0.8-0.2,1.4-0.5,1.7-0.9c0.4-0.4,0.6-0.9,0.6-1.8V88.8c0-0.9-0.2-1.4-0.8-2
				c-0.4-0.4-1.2-0.7-1.9-1.1l-7.2-2.7v-3.9l20.8-3V86h0.8c1.9-2.7,4.1-4.7,6.4-6.1s4.9-2.5,7.4-3.2s5-0.9,7.8-0.9
				c5.4,0,10.1,1.3,14,3.8s6.8,5.9,8.9,10.4c2.1,4.3,3.1,9.3,3.1,14.9c0,6.1-1.2,11.8-3.7,16.9c-2.5,5-6,9.1-10.7,12.2
				s-10.1,4.5-16.5,4.5c-3.9,0-7-0.5-9.7-1.8s-4.9-2.5-6.4-4.1v2.5v21.2c0,0.7,0.2,1.4,0.8,1.8c0.4,0.4,1,0.7,1.7,0.9l9.3,2.3v4.1
				h-34.1L286.2,165L286.2,165z M308.5,90.4v37.7c1.2,0.7,2.7,1.3,4.7,1.8c1.7,0.5,3.7,0.7,5.4,0.9c1.7,0.2,3.3,0.4,4.3,0.4
				c4.5,0,8.1-1.1,11.3-3c2.9-2,5-4.8,6.6-8.3c1.4-3.4,2.1-7.2,2.1-11.1c0-4.7-0.8-8.8-2.1-12.6c-1.4-3.8-3.5-6.6-6.4-8.8
				s-6.6-3.2-11.3-3.2c-2.9,0-5.4,0.5-8.1,1.6C312.2,86.6,310.1,88.3,308.5,90.4z"/>
		</g>
		<g>
			<path class="st1" d="M399.3,138.8c-6.2,0-11.8-1.3-16.5-3.8s-8.3-6.1-11.1-10.8c-2.7-4.7-3.9-10.2-3.9-16.9
				c0-5.9,1.4-11.3,3.9-16.1s6.2-8.6,11.1-11.3c4.9-2.9,10.5-4.1,17.1-4.1c7.2,0,13,1.4,17.7,4.3s8.1,6.8,10.3,11.5
				c2.3,4.8,3.5,9.9,3.5,15.6c0,5.9-1.4,11.3-3.9,16c-2.5,4.8-6.2,8.6-11.1,11.5C411.7,137.4,405.9,138.8,399.3,138.8z M400.1,132.7
				c3.5,0,6.4-0.7,8.7-2.2c2.3-1.4,4.1-3.4,5.4-5.9c1.4-2.5,2.3-5,2.9-7.9s0.8-5.6,0.8-8.4c0-4.5-0.6-8.6-1.9-12.7
				c-1.2-4.1-3.3-7.4-6-10c-2.7-2.5-6.4-3.9-11.1-3.9c-3.5,0-6.4,0.7-8.7,2.2c-2.3,1.4-4.1,3.4-5.4,5.7c-1.4,2.3-2.3,5-2.9,7.9
				s-1,5.6-1,8.3c0,3,0.4,6.1,1,9.1s1.7,6.1,3.1,8.6c1.4,2.7,3.5,4.8,5.8,6.5C393.5,132,396.6,132.7,400.1,132.7z"/>
		</g>
	</g>
</g>
<g>
	<path class="st2" d="M73.2,186.2h7.9v33.5h-7.9V186.2z"/>
	<path class="st2" d="M96,186.2h9.4l15.8,24.1v-24.1h6.6v33.5h-7.4l-17.7-26.8v26.8H96V186.2z"/>
	<path class="st2" d="M142.5,186.2h11.8l9.6,24.1l9.8-24.1h11.3v33.5h-7.5v-28.6l-11.4,28.6h-5.8l-11.2-28.6v28.6h-6.6V186.2z"/>
	<path class="st2" d="M232.9,202.9c0,5.7-1.5,10.1-4.4,13c-2.9,2.9-7.2,4.4-12.8,4.4c-5.6,0-9.9-1.5-12.9-4.4c-3-2.9-4.5-7.3-4.5-13
		c0-5.7,1.5-10,4.4-12.9c3-2.9,7.2-4.4,12.9-4.4c5.6,0,9.8,1.5,12.8,4.4S232.9,197.2,232.9,202.9z M224.6,203c0-4-0.7-7.1-2-9.4
		c-1.3-2.3-3.6-3.4-6.9-3.4s-5.6,1.1-6.9,3.4c-1.3,2.3-2,5.4-2,9.4c0,3.9,0.6,7,1.9,9.3c1.3,2.3,3.6,3.5,7.1,3.5
		c3.2,0,5.5-1.1,6.8-3.4C223.9,210.1,224.6,207,224.6,203z"/>
	<path class="st2" d="M246.4,186.2H261c3.7,0,6.4,0.2,8.3,0.6c1.9,0.4,3.5,1.3,4.8,2.7c1.3,1.4,2,3.1,2,5.2c0,3.7-2.4,6.2-7.1,7.3
		c5.7,1.3,8.6,4.1,8.6,8.4c0,2.5-1.1,4.6-3.4,6.5c-2.3,1.8-6.6,2.8-13,2.8h-14.7V186.2z M254.2,200.1h5c3.5,0,5.9-0.5,7-1.4
		c1.1-0.9,1.7-2.1,1.7-3.5c0-1.7-0.6-2.9-1.9-3.6c-1.3-0.7-3.3-1.1-6-1.1h-5.8V200.1z M254.2,215.3h6.4c5.9,0,8.8-1.8,8.8-5.4
		c0-1.4-0.6-2.7-1.9-3.8c-1.2-1.1-3.8-1.7-7.6-1.7h-5.7V215.3z"/>
	<path class="st2" d="M291.6,186.2h7.9v33.5h-7.9V186.2z"/>
	<path class="st2" d="M314.6,186.2h7.9V215h17v4.7h-24.9V186.2z"/>
	<path class="st2" d="M350,186.2h7.9v33.5H350V186.2z"/>
	<path class="st2" d="M382,186.2h8.9l12.9,33.5h-8l-3-8.4h-14.1l-3,8.4h-7.6L382,186.2z M391.2,206.9l-5.5-15.3l-5.5,15.3H391.2z"/>
	<path class="st2" d="M414.5,186.2H429c5.2,0,9.1,0.8,11.6,2.5s3.7,4,3.7,7.1c0,4.1-2.4,7-7.3,8.8l9.1,15.1h-8.6l-7.5-14h-7.5v14
		h-7.9V186.2z M422.5,190.5v10.9h6.1c2.7,0,4.7-0.5,6-1.6c1.3-1,1.9-2.4,1.9-4.1c0-3.5-2.6-5.3-7.8-5.3H422.5z"/>
	<path class="st2" d="M458.4,186.2h7.9v33.5h-7.9V186.2z"/>
	<path class="st2" d="M490.5,186.2h8.9l12.9,33.5h-8l-3-8.4h-14.1l-3,8.4h-7.6L490.5,186.2z M499.7,206.9l-5.5-15.3l-5.5,15.3H499.7
		z"/>
</g>
</svg>
