<?xml version="1.0" encoding="utf-8"?>
<!-- Generator: Adobe Illustrator 25.2.3, SVG Export Plug-In . SVG Version: 6.00 Build 0)  -->
<svg version="1.1" id="Capa_1" xmlns="http://www.w3.org/2000/svg" xmlns:xlink="http://www.w3.org/1999/xlink" x="0px" y="0px"
	 viewBox="0 0 531 283.5" style="enable-background:new 0 0 531 283.5;" xml:space="preserve">
<style type="text/css">
	.st0{fill:none;stroke:#FFFFFF;stroke-width:3;stroke-miterlimit:10;}
	.st1{fill:#FFFFFF;stroke:#FFFFFF;stroke-miterlimit:10;}
	.st2{fill:#2B3179;}
	.st3{fill:#FFFFFF;stroke:#FFFFFF;stroke-width:0.5;stroke-miterlimit:10;}
</style>
<line class="st0" x1="91.2" y1="165.4" x2="91.2" y2="185.3"/>
<g>
	<polyline class="st0" points="11,196.5 18.4,196.5 117.9,196.5 	"/>
	<polyline class="st0" points="18.4,196.5 18.7,145 48.8,124.3 48.8,99.1 79.9,78.6 79.9,147.6 110.4,168.5 110.4,196.5 	"/>
	<line class="st0" x1="48.8" y1="196.5" x2="48.8" y2="124.3"/>
	<line class="st0" x1="79.8" y1="196.5" x2="79.9" y2="147.6"/>
	<line class="st0" x1="28.5" y1="154.4" x2="28.5" y2="185.3"/>
	<line class="st0" x1="39.6" y1="140.1" x2="39.6" y2="185.3"/>
	<line class="st0" x1="101.5" y1="172.1" x2="101.5" y2="185.3"/>
	<line class="st0" x1="59.4" y1="111.2" x2="59.4" y2="185.3"/>
	<line class="st0" x1="70.6" y1="97.1" x2="70.6" y2="185.3"/>
	<line class="st0" x1="20.6" y1="205.7" x2="108.7" y2="205.7"/>
</g>
<path class="st1" d="M115.4,91.8c2.6-2.5,5.6-4.4,9-5.7s7.1-1.9,11.3-1.9c3.9,0,7.6,0.6,10.8,1.8c3.5,1.2,6.5,3.2,9.2,6l4.3-4.4
	c-3-3.4-6.6-5.6-10.8-7.3c-4-1.6-8.8-2.4-13.8-2.4c-5,0-9.7,0.8-14,2.5c-4.3,1.7-8,4.1-11.2,7.1c-3.1,3-5.6,6.5-7.4,10.6
	c-1.7,4.1-2.6,8.6-2.6,13.4c0,4.9,0.9,9.4,2.6,13.4c1.7,4,4.1,7.6,7.3,10.6s6.8,5.4,11,7.1c4.2,1.7,9,2.5,14,2.5
	c4.5,0,9.2-0.6,13.3-2.3c4.2-1.4,7.8-3.5,10.9-6.2l0,0v0c0,0,0.1-0.1,0.1-0.1l-0.1-0.1v-25h-6.7v22.2c-2,1.4-4.1,2.5-6.4,3.3
	c-3.5,1.2-7,1.7-10.8,1.7c-3.9,0-7.7-0.7-11.2-1.9c-3.5-1.3-6.5-3.2-9-5.7c-2.5-2.5-4.5-5.5-6-8.8c-1.4-3.5-2.1-6.9-2.1-10.9
	c0-4,0.6-7.7,2.1-10.9S112.9,94.3,115.4,91.8z"/>
<path class="st1" d="M218.7,121.1c4-1.8,7-4.3,9.3-7.8c2.2-3.5,3.2-7.4,3.2-12.1c0-4.8-1-8.8-3.2-12.2c-2.2-3.5-5.2-6-9.3-7.8
	s-8.9-2.7-14.5-2.7h-24.8v66.3l7,0.1v-21h17.8c1.9,0,3.6-0.1,5.3-0.3l15.1,21.2h7.6l-16.1-22.6C217,121.8,217.9,121.4,218.7,121.1z
	 M204,117.8h-17.7V84.5H204c6.7,0,11.7,1.4,15.2,4.3c3.4,2.9,5.1,7,5.1,12.3s-1.6,9.3-5.1,12.2C215.7,116.4,210.6,117.8,204,117.8z"
	/>
<path class="st1" d="M294.6,116c0,7.9-1.7,13.6-5.3,17.3c-3.4,3.7-8.6,5.5-14.9,5.5s-11.4-1.8-14.9-5.5c-3.6-3.8-5.3-9.4-5.3-17.3
	V78.4h-6.9v38c0,9.4,2.4,16.7,7.3,21.6c4.9,4.9,11.6,7.3,20,7.3s15.2-2.5,19.7-7.3c4.9-4.9,7.3-12.1,7.3-21.6v-38h-6.8V116z"/>
<path class="st1" d="M361.4,81.1c-4.1-1.8-8.9-2.7-14.5-2.7h-24.8v66.3h7v-20.9h17.8c5.7,0,10.4-0.9,14.5-2.7c4-1.8,7-4.3,9.3-7.8
	c2.2-3.5,3.2-7.4,3.2-12.1c0-4.8-1-8.8-3.2-12.2C368.6,85.4,365.5,82.9,361.4,81.1z M361.8,113.3c-3.5,2.9-8.6,4.3-15.2,4.3H329
	V84.3h17.7c6.7,0,11.7,1.4,15.2,4.3c3.4,2.9,5.1,7,5.1,12.3C366.9,106.3,365.3,110.3,361.8,113.3z"/>
<path class="st1" d="M444,87.5c-3.1-3-6.8-5.4-11-7.1c-4.1-1.7-8.8-2.5-13.8-2.5c-5.2,0-9.7,0.8-14,2.5c-4.2,1.7-7.9,4.1-11,7.1
	c-3,3-5.5,6.5-7.3,10.6c-1.7,4.1-2.6,8.6-2.6,13.4c0,4.9,0.9,9.4,2.6,13.4c1.7,4,4.1,7.6,7.3,10.6c3.1,3,6.8,5.4,11,7.1
	c4.1,1.7,8.8,2.5,13.8,2.5c5,0,9.6-1,14-2.5c4.2-1.7,8-4.1,11-7.1c3-3,5.5-6.5,7.3-10.6c1.7-4.1,2.6-8.6,2.6-13.4
	c0-4.9-0.9-9.4-2.6-13.4C449.5,94.1,447.1,90.5,444,87.5z M444.5,122.6c-1.3,3.2-3.2,6.2-5.7,8.7s-5.3,4.4-8.8,5.7
	c-3.5,1.3-7.1,1.9-11,1.9c-3.9,0-7.6-0.6-11-1.8c-3.5-1.3-6.5-3.2-9-5.7c-2.7-2.5-4.5-5.5-6-8.8c-1.4-3.5-2.1-7-2.1-10.9
	c0-4,0.6-7.7,2.1-10.9c1.5-3.2,3.5-6.2,6-8.7c2.7-2.5,5.5-4.4,9-5.7s7.1-1.9,11-1.9c3.9,0,7.6,0.6,11,1.9c3.4,1.3,6.3,3.2,8.8,5.7
	c2.5,2.5,4.3,5.3,5.7,8.7c1.4,3.4,2.1,7,2.1,10.9C446.6,115.6,445.9,119.3,444.5,122.6z"/>
<g>
	<polygon class="st2" points="498.4,146.2 498.4,128.7 461,128.7 461,121.8 496.9,77 508.3,77 474.3,119.7 498.5,119.7 498.5,104.4 
		508.1,104.4 508.1,119.7 521.4,119.7 521.4,128.7 508.1,128.7 508.1,146.2 	"/>
	<path class="st2" d="M505.2,78.5l-33.9,42.7H500v-15.3h6.6v15.3h13.3v6.1h-13.3v17.4h-6.7v-17.3l0-0.1h-37.4v-4.9l35.1-43.9H505.2
		 M511.4,75.5h-6.2h-7.6h-1.4l-0.9,1.1l-35.1,43.9l-0.7,0.8v1.1v4.9v3h3h34.4v14.4v3h3h6.7h3v-3v-14.4h10.3h3v-3v-6.1v-3h-3h-10.3
		v-12.3v-3h-3H500h-3v3v12.3h-19.5l30.1-37.8L511.4,75.5L511.4,75.5z"/>
</g>
<g>
	<rect x="132.6" y="176.4" class="st3" width="3" height="28.8"/>
	<polygon class="st3" points="174.4,199.7 155.8,176.4 153.4,176.4 153.4,205.2 156.4,205.2 156.4,182 175,205.2 177.4,205.2 
		177.4,176.4 174.4,176.4 	"/>
	<polygon class="st3" points="210.1,197.8 197.5,176.4 195.1,176.4 195.1,205.2 198,205.2 198,182.4 209.2,201.5 210.6,201.5 
		222,182.1 222,205.2 224.9,205.2 224.9,176.4 222.4,176.4 	"/>
	<path class="st3" d="M266.2,180.4c-1.3-1.3-3-2.4-4.8-3c-1.9-0.7-3.9-1.1-6.1-1.1c-2.2,0-4.3,0.4-6.1,1.1c-1.8,0.7-3.4,1.7-4.8,3
		c-1.4,1.4-2.5,3-3.2,4.7c-0.7,1.7-1.1,3.8-1.1,5.8c0,2.1,0.4,4,1.1,5.8c0.8,1.9,1.9,3.4,3.2,4.7c1.3,1.3,3,2.4,4.8,3
		c1.9,0.7,3.9,1.1,6.1,1.1c2.2,0,4.1-0.4,6.1-0.9c1.8-0.7,3.4-1.6,4.8-3c1.4-1.4,2.4-2.9,3.2-4.7c0.7-1.8,1.1-3.7,1.1-5.9
		s-0.4-4.1-1.1-5.9C268.6,183.2,267.5,181.7,266.2,180.4z M266.4,195.6c-0.5,1.5-1.3,2.8-2.4,3.9s-2.4,1.9-3.9,2.4s-3,0.8-4.8,0.8
		c-1.8,0-3.3-0.3-4.8-0.8c-1.5-0.5-2.8-1.3-3.9-2.4c-1.1-1.1-2-2.4-2.6-3.9c-0.7-1.5-0.9-3.1-0.9-4.8c0-1.8,0.3-3.4,0.9-4.8
		c0.7-1.5,1.5-2.8,2.6-3.9c1.1-1.1,2.4-1.9,3.9-2.4c1.5-0.6,3-0.8,4.8-0.8s3.3,0.3,4.8,0.8c1.5,0.5,2.8,1.3,3.9,2.4
		c0.9,1.1,1.9,2.4,2.4,3.9c0.7,1.5,0.9,3,0.9,4.8S267,194.2,266.4,195.6z"/>
	<path class="st3" d="M305.3,191c-0.6-0.2-1.2-0.4-1.9-0.6c0.2-0.1,0.3-0.1,0.5-0.2c1.3-0.5,2.4-1.3,3-2.4c0.7-1.1,1.1-2.4,1.1-4
		c0-2.3-0.8-4.2-2.6-5.5c-1.6-1.3-4.2-1.9-7.4-1.9h-12.5v28.8l13.2-0.1c3.5,0,6.3-0.7,8.1-2c1.9-1.3,2.8-3.2,2.8-5.6
		c0-1.7-0.4-3-1.1-4.1C307.6,192.3,306.6,191.5,305.3,191z M297.8,179c2.4,0,4.1,0.3,5.4,1.3c1.3,0.9,1.9,2.2,1.9,4
		c0,1.8-0.7,3.1-1.9,4c-1.3,0.9-3,1.3-5.4,1.3h-9.2l0-10.5H297.8z M304.5,201.5c-1.4,0.8-3.4,1.3-5.8,1.3h-10.2l0-10.8h10.1
		c2.5,0,4.5,0.4,5.8,1.3c1.3,0.8,2,2.2,2,4.1C306.5,199.3,305.9,200.6,304.5,201.5z"/>
	<rect x="324.8" y="176.4" class="st3" width="3" height="28.8"/>
	<polygon class="st3" points="348.6,176.4 345.6,176.4 345.6,205.2 364.8,205.2 364.8,202.6 348.6,202.6 	"/>
	<rect x="377.9" y="176.4" class="st3" width="3" height="28.8"/>
	<path class="st3" d="M407.2,176.4L394,205.2h3.3l3.5-7.7h16l3.5,7.7h3.2l-13.2-28.8H407.2z M401.8,195.1l6.9-15.5l6.9,15.5H401.8z"
		/>
	<path class="st3" d="M453.6,195.2c1.8-0.8,3.2-1.9,4.1-3.4c0.9-1.3,1.3-3.2,1.3-5.2c0-2.1-0.4-3.9-1.3-5.4
		c-0.9-1.5-2.4-2.6-4.1-3.4c-1.8-0.8-3.9-1.3-6.3-1.3h-10.8v28.8h-0.1v0.4h3.2v-9.3h7.7c0.8,0,1.6-0.1,2.4-0.2l6.4,9h3.3l-6.8-9.6
		C452.9,195.5,453.3,195.3,453.6,195.2z M447.2,193.6h-7.7v-14.6h7.7c2.9,0,5,0.7,6.6,1.9c1.5,1.3,2.2,3,2.2,5.4s-0.7,4.1-2.2,5.4
		S450.1,193.6,447.2,193.6z"/>
	<rect x="474.5" y="176.4" class="st3" width="3" height="28.8"/>
	<path class="st3" d="M516.8,205.2h3.2l-13.2-28.8h-3l-13.2,28.8h3.3l3.5-7.7h16L516.8,205.2z M498.4,195.1l6.9-15.5l6.9,15.5H498.4
		z"/>
</g>
</svg>
